<?xml version="1.0" encoding="utf-8"?>
<!-- Generator: Adobe Illustrator 25.1.0, SVG Export Plug-In . SVG Version: 6.00 Build 0)  -->
<svg version="1.1" id="Layer_1" xmlns="http://www.w3.org/2000/svg" xmlns:xlink="http://www.w3.org/1999/xlink" x="0px" y="0px"
	 viewBox="0 0 631.0352 631.0345" style="enable-background:new 0 0 631.0352 631.0345;" xml:space="preserve">
<style type="text/css">
	.st0{fill:#FFFFFF;}
	.st1{fill:#F0B521;}
	.st2{fill:#048B4C;}
	.st3{fill:#468868;}
	.st4{fill:#F2F2F2;}
	.st5{fill:#384240;}
</style>
<path class="st0" d="M316.7885,589.5641c-18.8591,0-32.2695-13.1651-45.2381-25.8941
	c-9.7649-9.5862-19.8596-19.4989-31.6528-23.0237c-4.08-1.217-8.6001-1.8102-13.8105-1.8102c-7.6392,0-15.3595,1.2152-24.6591,2.8
	l-1.0619,0.182c-8.8418,1.4911-17.1877,2.8992-25.3983,2.8992c-10.266,0-18.5543-2.3186-25.3334-7.091
	c-15.2637-10.7709-18.1379-29.0656-20.918-46.7579c-2.0968-13.3365-4.262-27.1291-11.6849-36.7155
	c-7.4715-9.6567-20.2635-15.7344-32.6353-21.6084c-16.2033-7.695-32.9581-15.6533-38.551-32.3775
	c-5.8253-17.4148,2.919-33.8596,11.3768-49.7635c6.368-11.9788,12.9561-24.367,12.7613-36.353
	c-0.1858-12.0925-6.8656-24.3201-13.3256-36.1494c-8.4452-15.4639-17.1787-31.4544-11.5984-48.1623
	c5.8378-17.4184,22.8687-25.7355,39.3369-33.7766c12.4044-6.058,25.2342-12.3215,32.3269-22.126
	c7.1597-9.8838,9.1519-23.5862,11.0865-36.8381c2.5222-17.3426,5.1349-35.273,19.7749-45.6022
	c7.2209-5.1078,16.0642-7.5923,27.0208-7.5923c8.0882,0,16.5836,1.345,24.8015,2.6449l1.181,0.1858
	c7.5345,1.208,16.0429,2.5728,23.9687,2.5728c5.6846,0,10.5365-0.696,14.8275-2.1257c11.7839-3.9106,21.6894-13.854,31.2705-23.4692
	c12.5323-12.5864,25.4974-25.5984,43.5972-25.5984c18.8553,0,32.2605,13.1652,45.2274,25.8977
	c9.7629,9.5845,19.8596,19.4972,31.6473,23.0256c4.0674,1.2098,8.5946,1.8012,13.8268,1.8012
	c8.1422,0,16.9245-1.4803,24.6754-2.7856l0.8581-0.1442c8.5154-1.455,17.3193-2.9569,25.6057-2.9569
	c10.2409,0,18.5182,2.3167,25.2973,7.0892c15.273,10.778,18.1487,29.0745,20.9323,46.7705
	c2.095,13.3311,4.264,27.1166,11.6852,36.7064c7.4695,9.6638,20.2687,15.7434,32.6443,21.6228
	c16.1923,7.6879,32.9346,15.6389,38.5292,32.3397c5.8343,17.4274-2.9117,33.8723-11.3675,49.7761
	c-6.3753,11.9842-12.9651,24.3759-12.7543,36.3674c0.1893,12.0961,6.8639,24.3165,13.3186,36.135
	c8.4485,15.4658,17.182,31.458,11.5856,48.166c-5.8162,17.4292-22.8596,25.7498-39.3422,33.7929
	c-12.4026,6.0543-25.2288,12.3141-32.3181,22.1186c-7.1396,9.8749-9.1356,23.5719-11.0684,36.8146
	c-2.5277,17.3481-5.1402,35.2822-19.7711,45.6185c-7.2334,5.1132-16.0679,7.5959-27.0083,7.5959
	c-8.1422,0-16.6829-1.3503-24.9441-2.6593l-1.0492-0.166c-7.5545-1.2062-16.095-2.571-23.9975-2.571
	c-5.6919,0-10.5382,0.6959-14.8167,2.1238c-11.7661,3.9124-21.6661,13.8503-31.2434,23.4601
	C347.8604,576.5432,334.8918,589.5641,316.7885,589.5641"/>
<path class="st1" d="M399.971,604.8823c-13.5114,0-26.9957-6.9739-41.0985-14.2705l-2.1888-1.1304
	c-15.4713-7.9745-29.4946-14.5787-44.3798-14.5787h-0.1046c-16.27,0.0577-31.6743,7.7527-46.5706,15.1935
	c-17.4778,8.7353-33.9892,16.9821-50.0988,11.6868c-16.9441-5.5964-25.2685-22.2107-34.0795-39.8076
	c-7.4101-14.7861-15.0709-30.0787-28.2758-39.3531c-13.1923-9.2438-30.3149-11.813-46.8696-14.2974
	c-19.4234-2.9118-37.7721-5.6649-47.5603-19.1312c-10.3219-14.1839-7.0063-32.3866-3.4941-51.6529
	c2.9496-16.1888,6.0002-32.9274,0.9358-47.9533c-5.0827-15.0421-17.3896-26.9002-29.289-38.3706
	C12.957,337.7847-0.2137,325.0937,0.0026,308.6147c0.2417-17.3752,13.9333-30.1942,28.4309-43.7651
	c12.1898-11.418,24.7997-23.2239,29.7831-38.2929c5.0033-15.0728,2.2266-31.6889-0.458-47.7603
	c-3.1426-18.8211-6.1083-36.6001,4.0368-49.8067c10.7114-13.9315,29.5578-16.4881,49.5109-19.1944
	c16.7621-2.2716,34.0995-4.621,47.2449-13.9549c13.1381-9.3321,20.9521-24.3471,28.5064-38.8718
	c8.8651-17.0361,17.2417-33.1294,33.4557-38.028c17.0938-5.1637,33.8975,3.5446,51.6944,12.7595l2.1238,1.098
	c15.446,7.9673,29.4512,14.5643,44.378,14.5643h0.1299c16.277-0.0559,31.6834-7.7455,46.5794-15.1845
	c17.476-8.7245,33.9787-16.9532,50.0591-11.6706c16.9443,5.5802,25.2758,22.1999,34.0958,39.7913
	c7.4139,14.7879,15.08,30.077,28.2866,39.3406c13.205,9.2672,30.3384,11.8329,46.904,14.3155
	c19.4124,2.91,37.7468,5.6577,47.5548,19.1149c10.3093,14.1929,6.9865,32.383,3.4725,51.6386
	c-2.9586,16.1995-6.0163,32.949-0.9393,47.9821c5.0807,15.0312,17.384,26.8911,29.2765,38.358
	c13.9459,13.4428,27.1129,26.1393,26.9037,42.6255c-0.2452,17.3715-13.9386,30.1905-28.4344,43.7614
	c-12.1935,11.4109-24.8015,23.2112-29.7922,38.275c-4.9869,15.0654-2.2141,31.6743,0.4688,47.7386
	c3.1426,18.8337,6.1138,36.6217-4.0459,49.8356c-10.7132,13.9297-29.5613,16.4881-49.5164,19.1962
	c-16.7621,2.2698-34.094,4.6227-47.2411,13.9495c-13.1597,9.3501-20.9702,24.3759-28.5262,38.9096
	c-8.8491,17.0181-17.2021,33.0916-33.3946,38.0045C407.0152,604.4081,403.4922,604.8823,399.971,604.8823 M312.3004,567.9341
	c16.542,0,31.4147,6.9685,47.7494,15.3901l2.196,1.1359c16.4214,8.4901,31.9341,16.5079,46.1737,12.2277
	c13.286-4.0332,20.9739-18.8248,29.1196-34.4888c7.5653-14.557,16.1419-31.0578,30.6972-41.3959
	c14.6041-10.3598,32.8428-12.8371,50.4828-15.2278c18.4317-2.4989,35.8393-4.8626,44.7603-16.4628
	c8.3369-10.8448,5.6036-27.2157,2.71-44.5457c-2.6884-16.0914-5.7318-34.3301-0.2183-50.9912
	c5.546-16.735,18.8157-29.152,31.6455-41.1616c13.3888-12.5341,26.0349-24.3687,26.2404-38.832
	c0.1694-13.5277-11.9501-25.2145-24.7834-37.5845c-11.9158-11.4903-25.4201-24.5094-31.0381-41.1327
	c-5.6432-16.7008-2.4249-34.3265,0.6869-51.3717c3.2454-17.788,6.3159-34.588-2.2662-46.4027
	c-8.0449-11.0395-24.9188-13.5673-42.7859-16.2447c-16.5946-2.4863-35.4029-5.3061-50.0161-15.5559
	c-14.6651-10.2895-22.7315-26.3773-30.5312-41.9387c-8.1476-16.2482-15.8426-31.5968-29.9506-36.2412
	c-13.1978-4.347-28.3878,3.2417-44.4718,11.2702c-15.648,7.814-31.833,15.8931-49.8411,15.949h-0.1497
	c-16.5801,0.0036-31.4344-6.9613-47.7458-15.3738l-2.1331-1.1034c-16.4357-8.5118-31.9754-16.5584-46.1863-12.2529
	c-13.3113,4.0206-21.0208,18.8337-29.179,34.5158c-7.9403,15.2567-16.1509,31.0343-30.6774,41.3527
	c-14.6039,10.367-32.8501,12.8407-50.4901,15.2314c-18.4262,2.5006-35.8338,4.859-44.7531,16.461
	c-8.3242,10.8376-5.5909,27.1994-2.7007,44.5222c2.6881,16.0969,5.737,34.3428,0.2053,51.0093
	c-5.5367,16.7369-18.803,29.1593-31.6365,41.1742c-13.3868,12.5359-26.0329,24.3741-26.2347,38.8393
	c-0.1767,13.5222,11.9426,25.1999,24.7726,37.5664c11.921,11.4866,25.4325,24.5058,31.0541,41.1435
	c5.627,16.6881,2.4159,34.3031-0.6851,51.3411c-3.2454,17.7969-6.3086,34.6042,2.2878,46.4153
	c8.0323,11.0504,24.9152,13.5835,42.7914,16.2663c16.5873,2.4899,35.383,5.3079,49.9782,15.5325
	c14.6706,10.3021,22.7315,26.3953,30.5275,41.9567c8.1386,16.2501,15.8247,31.5969,29.9328,36.2539
	c13.2176,4.3505,28.4146-3.2435,44.5096-11.2848c15.6498-7.8159,31.8313-15.9021,49.832-15.9616H312.3004z"/>
<path class="st2" d="M317.0171,631.0345c-18.3668,0-32.1213-13.5042-46.6856-27.8071
	c-12.253-12.0347-24.926-24.4787-40.9524-29.2674c-16.0554-4.7742-33.7839-1.7597-49.4192,0.9015l-1.3234,0.2253
	c-19.8325,3.3517-38.5618,6.5213-52.6067-3.404c-14.8619-10.4769-17.817-29.2529-20.9433-49.127
	c-2.6323-16.7261-5.353-34.0255-15.4277-47.041c-10.0805-13.0444-26.1015-20.6566-41.5961-28.0198
	c-18.1161-8.6073-35.2261-16.7404-40.6152-32.8102c-5.6849-16.9748,3.2903-33.8506,12.7955-51.7196
	c7.9927-15.0313,16.261-30.5728,15.9942-46.8445c-0.267-16.3149-8.631-31.6221-16.7207-46.4262
	c-9.4583-17.3101-18.3901-33.6576-13.0191-49.7454c5.6846-16.955,23.1572-25.4793,41.6536-34.5068
	c15.5793-7.6013,31.6854-15.4585,41.3402-28.7914c9.635-13.3275,12.1321-30.4791,14.5462-47.0644
	c2.827-19.4179,5.4971-37.7593,19.5964-47.7009c14.8473-10.4733,34.1316-7.4138,54.543-4.1666l0.9376,0.1478
	c15.9797,2.5368,34.0993,5.4161,49.9311,0.1443c15.8932-5.2754,28.2993-17.7249,40.2998-29.765
	c14.0341-14.0811,27.2858-27.3798,44.706-27.3798c18.3487,0,32.0982,13.497,46.657,27.789
	c12.2582,12.0347,24.9368,24.4787,40.9722,29.271c16.0338,4.7941,33.7658,1.7724,49.4101-0.8942l1.1394-0.1948
	c19.8939-3.3896,38.6898-6.5951,52.7781,3.3373c14.8727,10.495,17.8258,29.2674,20.9521,49.145
	c2.6287,16.7261,5.3477,34.0237,15.4244,47.0518c10.0729,13.0355,26.0995,20.6439,41.5977,28.0072
	c18.1271,8.6091,35.2497,16.7404,40.6335,32.821c5.6701,16.9677-3.3013,33.8416-12.803,51.7034
	c-7.996,15.0403-16.2698,30.589-15.9975,46.8769v0.0018c0.2577,16.3113,8.6252,31.6239,16.717,46.4298
	c9.4528,17.3012,18.3828,33.6432,13.0138,49.713c-5.6849,16.9622-23.1519,25.4885-41.6465,34.5177
	c-15.5776,7.6013-31.6833,15.4621-41.3274,28.7986c-9.646,13.3293-12.1449,30.4844-14.5608,47.0717
	c-2.8306,19.4142-5.5026,37.7521-19.5927,47.7027c-14.8511,10.4661-34.1356,7.4011-54.5575,4.1541l-0.9052-0.1425
	c-15.9707-2.5566-34.0632-5.4431-49.9762-0.1605c-15.8732,5.2755-28.274,17.7303-40.2655,29.7723
	C347.6855,617.7286,334.4338,631.0345,317.0171,631.0345 M210.4192,564.5016c7.0675,0,14.1983,0.752,21.0692,2.7947
	c17.7538,5.3061,31.0687,18.3829,43.9489,31.0307c13.4773,13.2373,26.2098,25.739,41.5798,25.739
	c14.3733,0,26.5974-12.2764,39.5372-25.2739c12.5829-12.637,25.5947-25.7031,43.1033-31.5212
	c17.6185-5.8487,36.6613-2.8107,53.4613-0.1243l0.9015,0.1443c18.904,3.0036,36.7533,5.8397,49.181-2.9191
	c11.6275-8.2089,14.092-25.126,16.6991-43.0366c2.5385-17.404,5.1617-35.4029,15.7993-50.1007
	c10.6808-14.7699,27.6086-23.0309,43.9742-31.0217c17.1208-8.3568,33.2898-16.2483,38.0461-30.4411
	c4.428-13.2572-3.8097-28.3318-12.5289-44.2933c-8.4901-15.5343-17.2667-31.6005-17.5518-49.585
	c-0.3011-18.0404,8.3911-34.3824,16.7964-50.1908c8.7949-16.5313,17.0992-32.1485,12.3539-46.3505
	c-4.4424-13.2661-20.2364-20.7682-36.9606-28.7121c-16.261-7.7239-33.0735-15.7073-44.1815-30.0841
	c-11.1604-14.4291-14.0198-32.6048-16.7839-50.1836c-2.8937-18.3991-5.627-35.7743-18.0745-44.5583
	c-11.6184-8.1908-28.9611-5.2394-47.3186-2.1113l-1.1396,0.193c-15.628,2.663-35.0747,5.9732-52.7654,0.694
	c-17.7556-5.3079-31.0775-18.3866-43.9597-31.0307c-13.4736-13.23-26.2025-25.7246-41.5547-25.7246
	c-14.3768,0-26.6024,12.2692-39.5496,25.2577c-12.5901,12.6351-25.6074,25.6993-43.1286,31.512
	c-17.5302,5.8398-36.5964,2.8127-53.4199,0.1425l-0.9356-0.1497c-18.8897-2.9984-36.7318-5.8398-49.1667,2.928
	c-11.6345,8.2052-14.0975,25.126-16.7082,43.0384c-2.5295,17.4004-5.1509,35.3921-15.7812,50.0953
	c-10.6916,14.7644-27.6195,23.0256-43.9867,31.0127c-17.1246,8.3549-33.2953,16.2464-38.0516,30.4321
	c-4.4315,13.2753,3.808,28.3551,12.5325,44.3221c8.4883,15.5325,17.2632,31.5933,17.5555,49.5832
	c0.2973,18.0241-8.3893,34.3571-16.7911,50.1564c-8.7965,16.5386-17.1063,32.1576-12.3502,46.3612
	c4.4515,13.2626,20.2364,20.7647,36.9481,28.7067c16.2572,7.7239,33.0662,15.7146,44.1778,30.095
	c11.1604,14.4165,14.0198,32.5921,16.7874,50.1745c2.892,18.3956,5.6252,35.7725,18.0674,44.5421
	c11.5894,8.189,28.8654,5.2682,47.1547,2.1743l1.3196-0.2235C188.2841,566.3714,199.2713,564.5016,210.4192,564.5016"/>
<path class="st3" d="M317.018,630.1646c-18.3685,0-32.1251-13.5096-46.6894-27.8071c-12.253-12.0364-24.9241-24.4787-40.9506-29.271
	c-15.9867-4.7579-33.7478-1.7488-49.4209,0.9123l-1.1612,0.1984c-19.8937,3.3806-38.6879,6.5699-52.7654-3.386
	c-14.8654-10.4733-17.8168-29.2476-20.9431-49.1251c-2.6322-16.7261-5.3565-34.0255-15.4297-47.0446
	c-10.0767-13.039-26.096-20.6475-41.5906-28.009c-18.1181-8.6091-35.2281-16.7387-40.6207-32.8102
	c-5.6846-16.9712,3.2905-33.8487,12.7939-51.7142c7.996-15.0331,16.2645-30.5782,15.9958-46.8606
	c-0.265-16.3079-8.6307-31.6186-16.7187-46.4208c-9.4565-17.3102-18.3903-33.6631-13.021-49.7473
	c5.6846-16.955,23.1644-25.4847,41.6628-34.5158c15.5756-7.6013,31.6816-15.464,41.3309-28.7843
	c9.6368-13.3238,12.1339-30.4753,14.548-47.0608c2.827-19.4214,5.4974-37.7647,19.5946-47.7135
	c14.8293-10.4517,34.0687-7.4065,54.4422-4.1721l1.0186,0.1606c15.9814,2.5475,34.1013,5.4304,49.9529,0.1442
	c15.8967-5.2664,28.3081-17.7195,40.3086-29.7614C283.3838,13.2951,296.6355,0,314.0504,0c18.3487,0,32.098,13.497,46.6533,27.789
	c12.262,12.0384,24.9386,24.4841,40.9739,29.271c15.9852,4.785,33.7461,1.7669,49.4156-0.8871l1.1016-0.1875
	c19.9137-3.4004,38.7257-6.6078,52.8122,3.3229c14.8727,10.4914,17.8278,29.2674,20.9521,49.145
	c2.6287,16.7296,5.3495,34.029,15.4261,47.0536c10.0732,13.0335,26.0961,20.6403,41.5906,27.9999
	c18.1306,8.6092,35.257,16.7423,40.6388,32.83c5.6721,16.9713-3.3013,33.8433-12.801,51.7071
	c-7.998,15.0349-16.2718,30.5854-15.9977,46.8715v0.0036c0.2559,16.3095,8.6254,31.6167,16.7152,46.4225
	c9.453,17.3012,18.3831,33.6396,13.0156,49.7093c-5.6847,16.9713-23.1555,25.4992-41.6556,34.5284
	c-15.5721,7.5995-31.6744,15.4604-41.3201,28.7951c-9.644,13.3329-12.1447,30.4844-14.5608,47.0717
	c-2.8288,19.4142-5.5007,37.7521-19.5891,47.7116c-14.8744,10.4807-34.1895,7.3976-54.6458,4.1252l-0.824-0.1298
	c-15.9651-2.5584-34.0579-5.4431-49.9707-0.1586c-15.8696,5.279-28.2705,17.7302-40.262,29.7722
	C347.6846,616.8569,334.4346,630.1646,317.018,630.1646 M210.4615,563.5993c7.0369,0,14.1098,0.7645,21.0261,2.8235
	c17.7518,5.3079,31.0685,18.3847,43.9451,31.0307c13.4826,13.2373,26.2116,25.7427,41.5854,25.7427
	c14.3713,0,26.5989-12.2781,39.5388-25.2758c12.5829-12.6351,25.5931-25.7012,43.1015-31.5211
	c17.624-5.8578,36.6633-2.809,53.4615-0.128l0.822,0.1334c18.9276,3.0253,36.811,5.8831,49.2587-2.8883
	c11.6237-8.2197,14.0938-25.1368,16.7007-43.0475c2.5367-17.4039,5.1602-35.401,15.7994-50.1005
	c10.6789-14.7735,27.6014-23.031,43.9705-31.0182c17.121-8.3549,33.2917-16.2482,38.0496-30.4519
	c4.4282-13.2572-3.8095-28.3299-12.5287-44.2897c-8.4901-15.5307-17.2687-31.5933-17.5535-49.5778
	c-0.3011-18.044,8.3908-34.3842,16.7982-50.1871c8.7947-16.5331,17.0993-32.1503,12.352-46.354
	c-4.4424-13.2752-20.2399-20.7773-36.9661-28.7193c-16.2555-7.7221-33.0697-15.7056-44.176-30.0751
	c-11.1584-14.4292-14.018-32.6065-16.7819-50.1871c-2.8954-18.4011-5.627-35.7798-18.0729-44.5602
	c-11.6363-8.1963-28.9842-5.2323-47.3565-2.0986l-1.1051,0.1893c-16.4683,2.791-35.1288,5.9606-52.7636,0.6851
	c-17.7573-5.3025-31.0812-18.3829-43.9651-31.0343c-13.4735-13.2265-26.1988-25.721-41.551-25.721
	c-14.3733,0-26.5974,12.2674-39.539,25.2541c-12.5937,12.6388-25.6165,25.7066-43.1412,31.5085
	c-17.5482,5.8596-36.618,2.8198-53.436,0.1424l-1.015-0.1623c-18.8501-2.9875-36.656-5.8145-49.0677,2.9334
	c-11.6345,8.2107-14.099,25.1315-16.7044,43.0475c-2.533,17.4039-5.1527,35.3956-15.7867,50.097
	c-10.6879,14.7536-27.6087,23.0147-43.9777,31.0018c-17.1263,8.3621-33.3023,16.2591-38.0604,30.443
	c-4.4317,13.2734,3.8097,28.357,12.536,44.3258c8.4846,15.5325,17.2615,31.5914,17.5535,49.576
	c0.2976,18.035-8.3928,34.3734-16.7944,50.1727c-8.7967,16.5349-17.103,32.1522-12.3467,46.3559
	c4.4497,13.2643,20.2382,20.7646,36.9499,28.7031c16.2555,7.7256,33.0644,15.7109,44.176,30.0877
	c11.1584,14.4219,14.018,32.5993,16.7857,50.18c2.8937,18.3956,5.6252,35.7706,18.0692,44.5385
	c11.6217,8.2179,28.9536,5.2754,47.3078,2.1563l1.1629-0.1965C188.7322,565.4347,199.5535,563.5993,210.4615,563.5993"/>
<path class="st4" d="M316.7889,589.5643c-18.8589,0-32.271-13.1652-45.2379-25.894c-9.7648-9.5862-19.8614-19.499-31.6545-23.0237
	c-4.08-1.217-8.5984-1.8102-13.8087-1.8102c-7.6393,0-15.3613,1.2152-24.6611,2.7999l-1.0619,0.1804
	c-8.8398,1.4929-17.1875,2.901-25.3981,2.901c-10.2645,0-18.5543-2.3187-25.3316-7.0911
	c-15.264-10.7709-18.1379-29.0654-20.9198-46.7578c-2.095-13.3365-4.2605-27.1291-11.6831-36.7155
	c-7.4715-9.6584-20.2652-15.7344-32.6353-21.6084c-16.2033-7.6969-32.9581-15.6552-38.5528-32.3776
	c-5.8235-17.4148,2.919-33.8596,11.3785-49.7652c6.368-11.9771,12.9541-24.3652,12.7613-36.3513
	c-0.1875-12.0924-6.8676-24.32-13.3274-36.1493c-8.4434-15.4658-17.177-31.4544-11.5966-48.1624
	c5.8378-17.4183,22.8669-25.7354,39.3369-33.7765c12.4044-6.0598,25.2324-12.3215,32.3269-22.126
	c7.1577-9.8838,9.1519-23.5863,11.0847-36.8381c2.524-17.3426,5.1366-35.273,19.7766-45.6022
	c7.2209-5.1078,16.0624-7.5923,27.0191-7.5923c8.0898,0,16.5854,1.345,24.8015,2.6449l1.181,0.1858
	c7.5345,1.2079,16.0444,2.5728,23.9684,2.5728c5.6866,0,10.5385-0.696,14.8295-2.1257
	c11.7839-3.9106,21.6877-13.854,31.2705-23.4692c12.5322-12.5865,25.4956-25.5984,43.5954-25.5984
	c18.8553,0,32.2622,13.1652,45.2271,25.8977c9.7631,9.5845,19.8616,19.4972,31.6493,23.0256
	c4.0674,1.2098,8.5946,1.8012,13.8268,1.8012c8.1422,0,16.9245-1.4803,24.6754-2.7856l0.8564-0.1442
	c8.5172-1.4569,17.3211-2.9586,25.6057-2.9586c10.2426,0,18.5199,2.3185,25.2991,7.091
	c15.271,10.778,18.1487,29.0745,20.9323,46.7705c2.095,13.331,4.2622,27.1166,11.6831,36.7064
	c7.4716,9.6638,20.2708,15.7434,32.6462,21.6228c16.1906,7.6879,32.9329,15.6389,38.5292,32.3397
	c5.8325,17.4274-2.9117,33.8722-11.3695,49.7761c-6.3733,11.9825-12.9632,24.3759-12.7523,36.3657
	c0.1893,12.0979,6.8639,24.3182,13.3186,36.1366c8.4467,15.4658,17.182,31.4581,11.5856,48.1661
	c-5.8163,17.4292-22.8596,25.748-39.344,33.7928c-12.4026,6.0544-25.2271,12.3142-32.3181,22.1187
	c-7.1396,9.8748-9.1339,23.5719-11.0667,36.8146c-2.5294,17.3481-5.1419,35.2821-19.7711,45.6184
	c-7.2354,5.1132-16.068,7.5959-27.01,7.5959c-8.1404,0-16.6811-1.3504-24.9423-2.6593l-1.0511-0.166
	c-7.5525-1.2062-16.093-2.5709-23.9955-2.5709c-5.6919,0-10.54,0.6959-14.8185,2.1238
	c-11.7643,3.9124-21.6643,13.8503-31.2417,23.4601C347.8611,576.5434,334.8924,589.5643,316.7889,589.5643 M226.0877,517.9256
	c7.3848,0,13.9729,0.8943,20.1389,2.7315c16.9677,5.0717,29.5397,17.4148,40.6332,28.3047
	c10.7601,10.5671,20.0544,19.6901,29.9291,19.6901c8.9734,0,17.8548-8.9138,28.1424-19.2375
	c10.816-10.8593,23.0762-23.1662,39.7247-28.7031c6.5591-2.1888,13.6969-3.2526,21.8085-3.2526
	c9.662,0,19.5387,1.5758,27.4718,2.8414l1.0401,0.166c7.7546,1.2278,15.08,2.3889,21.4771,2.3889
	c6.3121,0,10.8699-1.1431,14.3407-3.595c7.255-5.1259,9.0454-17.4113,11.1206-31.6384
	c2.1815-14.9592,4.6553-31.9159,14.7643-45.9051c10.2048-14.1063,26.1808-21.9024,40.2728-28.7842
	c13.6736-6.6746,25.483-12.4368,28.53-21.567c2.7731-8.2845-3.2039-19.2321-10.1271-31.9069
	c-7.2913-13.3527-15.556-28.485-15.8265-45.5969c-0.3011-17.2453,7.9077-32.6823,15.1504-46.3017
	c7.0206-13.1923,13.0767-24.5887,10.0243-33.7099c-2.7746-8.2756-14.2361-13.7187-27.5112-20.0237
	c-13.9784-6.6403-29.8228-14.164-40.4026-27.8485c-10.6716-13.7908-13.3708-30.9604-15.7543-46.1107
	c-2.3096-14.6815-4.3018-27.3635-12.2908-33.0014c-3.0073-2.1131-7.0313-3.1028-12.653-3.1028
	c-6.4041,0-13.9206,1.2837-21.8754,2.6413l-0.8852,0.1497c-8.629,1.455-18.3811,3.0975-28.3768,3.0975
	c-7.4029,0-13.998-0.8907-20.1534-2.7225c-16.9694-5.079-29.5397-17.422-40.6315-28.3119
	c-10.7601-10.5672-20.0542-19.6919-29.9183-19.6919c-8.9697,0-17.8474,8.9102-28.1226,19.2267
	c-10.8213,10.8628-23.0885,23.1806-39.7714,28.7175c-6.5646,2.187-13.6972,3.2489-21.8015,3.2489
	c-9.6891,0-19.5367-1.5757-27.4482-2.8468l-1.1647-0.1821c-7.7095-1.2206-14.9915-2.3745-21.3379-2.3745
	c-6.3266,0-10.8899,1.1431-14.3552,3.5951c-7.264,5.124-9.0509,17.4004-11.1223,31.6167
	c-2.1797,14.9699-4.6498,31.9376-14.7879,45.9376c-10.2011,14.1009-26.1752,21.9005-40.269,28.7824
	c-13.6718,6.6764-25.4758,12.4405-28.53,21.5544c-2.7623,8.2719,3.2164,19.2231,10.1416,31.9015
	c7.2966,13.3618,15.5683,28.5066,15.8335,45.6257c0.2813,17.2344-7.9223,32.6606-15.1629,46.2729
	c-7.0135,13.1959-13.075,24.5924-10.0298,33.7063c2.7766,8.2918,14.2487,13.7403,27.5347,20.0506
	c13.9729,6.6367,29.8082,14.1587,40.3881,27.8305c10.6789,13.7927,13.378,30.9712,15.7578,46.1251
	c2.3061,14.6796,4.2983,27.3563,12.2763,32.9851c3.0075,2.1167,7.0443,3.1083,12.6876,3.1083
	c6.3535,0,13.8123-1.2602,21.7112-2.5927l1.0456-0.1785C205.8385,519.6528,215.9621,517.9256,226.0877,517.9256"/>
<path class="st5" d="M185.8488,234.3571c0-3.4057,2.7659-5.8542,6.1735-5.8542c3.5102,0,6.2778,2.4485,6.2778,5.8542
	c0,3.6186-2.8739,5.8542-6.2778,5.8542C188.7227,240.2113,185.8488,237.9756,185.8488,234.3571 M212.457,240.2113
	c3.4039,0,6.2798-2.2357,6.2798-5.8542c0-3.4057-2.7676-5.8542-6.2798-5.8542c-3.4059,0-6.1735,2.4485-6.1735,5.8542
	C206.2835,237.9756,209.1574,240.2113,212.457,240.2113 M255.3492,240.2113c3.3013,0,6.0672-2.2357,6.0672-5.7478
	c0-3.2995-2.6613-5.7478-6.0672-5.7478c-3.4056,0-6.0669,2.4484-6.0669,5.7478
	C249.2823,237.9756,252.0517,240.2113,255.3492,240.2113 M275.5713,240.2113c3.1948,0,5.9606-2.2357,5.9606-5.7478
	c0-3.2995-2.6595-5.7478-5.9606-5.7478c-3.5121,0-6.1715,2.4484-6.1715,5.7478
	C269.3998,237.9756,272.272,240.2113,275.5713,240.2113 M265.5685,226.3754c2.9785,0,5.5332-2.1292,5.5332-5.3223
	c0-3.0867-2.4467-5.3205-5.5332-5.3205c-3.195,0-5.6415,2.2338-5.6415,5.3205C259.927,224.2461,262.5864,226.3754,265.5685,226.3754
	 M236.9376,312.3747h-13.625v23.415h-37.5593c-23.0958,0-34.8042-11.2829-34.8042-33.2069V281.189h10.4319v20.3283
	c0,15.9653,9.5773,23.8423,26.6062,23.8423h24.8952v-15.4333h-5.0842c-20.543,0-32.7832-10.1109-32.7832-27.8863v-0.1064
	c0-18.0945,12.7739-28.7373,34.166-28.7373h14.1316v48.7466h13.625h2.1256h21.183v-48.7466h10.4302v59.1785h-31.6132H236.9376z
	 M212.8824,263.5218h-5.829c-13.9441,0-22.0321,6.9179-22.0321,18.7309v0.1064c0,11.4956,8.088,18.3073,22.0321,18.3073h5.829
	V263.5218z M437.3003,226.0562h10.43v86.3185h-23.9469v-0.0163H406.201c-3.9017,4.8265-9.4583,8.2882-16.1888,10.1399
	c-6.9233-1.803-12.6748-5.3134-16.7225-10.1399h-15.4261v0.0163h-15.9634c-1.9165,17.9862-11.7102,23.6277-37.4673,23.6277
	l-0.3171-10.4301c20.009,0,26.3953-3.2994,27.459-13.1977h-2.3673c-23.4169,0-36.5081-10.5365-36.5081-29.3774v-0.1064
	c0-18.3072,12.985-29.6947,34.0579-29.6947h14.7157h0.7445v48.7466h13.5187v-0.0198h12.0436
	c-0.8762-2.8758-1.3161-5.948-1.3161-9.2636v-0.0974c0-15.3576,9.0689-26.6676,23.4999-30.6178
	c14.09,3.8511,22.9642,15.1142,22.9642,30.5204v0.1948c0,3.3156-0.438,6.3878-1.2675,9.2636h14.2361v0.0198h11.4038V226.0562z
	 M331.6829,263.5218h-6.9466c-13.8378,0-22.1386,7.237-22.1386,19.3691v0.1064c0,11.8147,8.3008,18.9455,22.1386,18.9455h6.9466
	V263.5218z M402.3969,292.2699c0-9.0184-4.6317-15.8931-12.4332-19.2087c-8.0431,3.3156-12.9183,10.2877-12.9183,19.306v0.0974
	c0,8.8741,4.8752,15.6515,12.9183,18.9184c7.8015-3.2669,12.4332-10.0443,12.4332-19.0158V292.2699z M469.6543,312.3747h10.4302
	v-86.3184h-10.4302V312.3747z"/>
<path class="st5" d="M185.5717,389.9805h-24.358c-1.7939,5.0862-3.5122,10.1741-5.1602,15.4045h-5.0862
	c5.7318-16.6935,11.8924-33.2429,18.8428-49.9366h8.811c5.6596,16.8343,12.7543,36.1079,18.7706,49.9366h-5.8019
	C189.6553,400.5855,187.5783,395.4272,185.5717,389.9805 M172.9618,359.4601c-3.5808,8.8832-7.0208,17.5536-10.1725,26.2204h21.2066
	c-3.0812-8.4522-6.1627-17.4796-8.9571-26.2204H172.9618z M210.3712,355.8559v39.4199c0,2.2159,0.3409,3.844,1.0188,4.8842
	c0.6779,1.0404,1.8534,1.5596,3.5284,1.5596c0.3605,0,1.0168-0.0667,1.9652-0.2037l0.4094,3.8691
	c-1.1775,0.2705-2.196,0.4075-3.0524,0.4075c-5.748,0-8.6199-3.4833-8.6199-10.45v-39.1494L210.3712,355.8559z M229.9117,376.4114
	v28.566h-4.7508v-31.5518c4.4786-2.306,9.1158-3.458,13.91-3.458c4.2063,0,7.4407,1.1755,9.7017,3.5283
	c3.9809-2.3528,8.0286-3.5283,12.1446-3.5283c4.3883,0,7.6771,1.1196,9.8731,3.3589c2.1941,2.2393,3.2903,5.2809,3.2903,9.123
	v22.528h-4.7491v-22.2557c0-2.6215-0.7012-4.713-2.104-6.2743c-1.4026-1.5614-3.55-2.342-6.4455-2.342
	c-3.5735,0-6.8297,0.997-9.7703,2.9875c0.6347,1.8085,0.9501,3.799,0.9501,5.9697v21.9149h-4.6804v-22.2557
	c0-5.7442-2.7837-8.6163-8.3459-8.6163C235.6776,374.1055,232.6685,374.8753,229.9117,376.4114 M297.7608,404.9775h-4.8175
	c-3.2128-5.9263-5.6992-11.5244-7.4643-16.7927c-1.7616-5.2682-3.0291-11.0702-3.7989-17.4022h4.6823
	c1.2188,10.0425,4.2748,20.0814,9.1607,30.1238c4.0226-7.9618,6.7378-15.6731,8.1404-23.1355
	c-0.3622-1.675-0.7463-4.0044-1.1539-6.9883h4.5453c1.3126,10.1309,4.3434,20.1734,9.0925,30.1238
	c5.0662-10.3129,8.1186-20.3536,9.1589-30.1238h4.7491c-0.8132,6.195-2.1258,11.9284-3.9341,17.1984
	c-1.8102,5.2719-4.2966,10.9368-7.4625,16.9965h-4.8175c-3.7104-7.1919-6.469-13.7493-8.2773-19.6756
	C303.8438,391.6789,301.2421,398.2363,297.7608,404.9775 M361.6738,402.6031c-3.6205,2.1256-8.0286,3.1894-13.2301,3.1894
	c-4.1161,0-7.284-0.9178-9.4979-2.7477c-2.2178-1.8337-3.3249-4.264-3.3249-7.2948c0-3.4833,1.2206-6.0742,3.6618-7.769
	c2.4449-1.6965,5.6091-2.5673,9.4998-2.6107c2.6232,0,5.3602,0.3156,8.2088,0.9483v-3.9341c0-5.5188-2.9622-8.2791-8.8867-8.2791
	c-3.3931,0-6.4457,0.5877-9.159,1.7633l-1.0872-3.9341c3.0306-1.3107,6.5591-1.967,10.5851-1.967
	c4.3866,0,7.6896,1.0763,9.9055,3.2219c2.2159,2.1491,3.3246,5.2809,3.3246,9.397V402.6031z M348.851,401.9918
	c3.4365,0,6.1499-0.6328,8.1404-1.9002v-10.313c-2.9857-0.6329-5.5638-0.9501-7.7345-0.9501c-5.9265,0-8.8869,2.2645-8.8869,6.7863
	c0,2.0788,0.7338,3.6618,2.205,4.7491C344.0443,401.4473,346.1358,401.9918,348.851,401.9918 M388.9471,405.1146
	c-1.72,0.4489-3.4166,0.6779-5.088,0.6779c-6.6493,0-9.9722-3.6203-9.9722-10.8575v-20.1498h-5.1582v-4.0026h5.1582v-8.0754
	l4.7473-0.3389v8.4144h9.2276v4.0026h-9.2276v20.1498c0,2.3979,0.4868,4.1162,1.4585,5.1566
	c0.9719,1.0402,2.4322,1.5613,4.3778,1.5613c1.536,0,2.917-0.1802,4.1394-0.5426L388.9471,405.1146z M401.4326,404.9775h-4.7508
	v-48.7844l4.7508-0.3372v16.6233c3.1642-1.675,6.4889-2.5115,9.9722-2.5115c4.2081,0,7.4643,1.1088,9.7701,3.3246
	c2.3079,2.2158,3.4618,5.2682,3.4618,9.1572v22.528h-4.7508v-22.1871c0-2.7586-0.7573-4.8932-2.2735-6.4114
	c-1.5144-1.5144-3.743-2.2735-6.6819-2.2735c-3.4833,0-6.6493,0.86-9.4979,2.5782V404.9775z M441.2238,362.7415
	c-0.5661,0.6112-1.3467,0.9159-2.3419,0.9159c-0.9935,0-1.7741-0.3047-2.3402-0.9159c-0.5643-0.6094-0.8476-1.3919-0.8476-2.3403
	c0-0.9032,0.2833-1.6497,0.8476-2.2411c0.5661-0.5841,1.3467-0.8798,2.3402-0.8798c0.9952,0,1.7759,0.2957,2.3419,0.8798
	c0.5663,0.5914,0.8476,1.3378,0.8476,2.2411C442.0714,361.3495,441.7901,362.132,441.2238,362.7415 M441.2581,404.9775h-4.7491
	v-34.1949h4.7491V404.9775z M480.0669,417.5279h-4.7491v-14.4506c-2.2158,1.8101-5.1113,2.7152-8.6831,2.7152
	c-4.7057,0-8.4395-1.5722-11.1963-4.7184c-2.7586-3.1425-4.1396-7.4048-4.1396-12.7866c0-5.701,1.5164-10.1777,4.547-13.4357
	c3.0291-3.2561,7.1451-4.8842,12.3467-4.8842c4.6588,0,8.6182,0.9051,11.8744,2.7134V417.5279z M456.1849,388.1505
	c0,4.1162,0.9842,7.3958,2.9514,9.8388c1.9687,2.443,4.7147,3.6636,8.2432,3.6636c3.2111,0,5.8576-0.9267,7.9383-2.7819v-23.4079
	c-2.1256-0.9032-4.455-1.3576-6.9882-1.3576c-3.7556,0-6.716,1.2224-8.8869,3.6654
	C457.2702,380.2121,456.1849,383.6738,456.1849,388.1505"/>
</svg>
