<svg width="215" height="48" viewBox="0 0 215 48" fill="none" xmlns="http://www.w3.org/2000/svg">
<path d="M10.9215 14.6357H9.67413C9.42466 14.4951 9.23062 14.2421 9.23062 13.9328C9.2029 13.7079 9.3415 13.511 9.56325 13.4829C9.59097 13.4829 9.61869 13.4829 9.6464 13.4829C9.92359 13.4829 10.0899 13.6516 10.1453 13.989H10.8383C10.7829 13.1455 10.3117 12.7237 9.6464 12.7237C9.06431 12.6675 8.56537 13.1174 8.50993 13.7079C8.50993 13.7641 8.50993 13.8203 8.50993 13.8484C8.50993 14.1296 8.62081 14.4108 8.81484 14.6357H8.37134V15.3949H10.8938V14.6357H10.9215Z" fill="#575756"/>
<path d="M13.0835 17.5597C13.0835 18.1501 12.8618 18.6 12.1133 18.6H7.67832C7.01306 18.6281 6.43096 18.122 6.40324 17.4191C6.40324 17.3628 6.40324 17.3347 6.40324 17.2785V15.3946H4.96186V17.3066C4.90642 18.7968 6.07062 20.034 7.512 20.0902C7.56744 20.0902 7.62288 20.0902 7.67832 20.0902H12.64C13.6656 20.1183 14.4972 19.3029 14.5249 18.2626C14.5249 18.2345 14.5249 18.2064 14.5249 18.1782V11.177H13.0835V17.5597Z" fill="#575756"/>
<path d="M16.9642 20.231C16.992 20.9058 16.4653 21.4962 15.8 21.5244C15.7723 21.5244 15.7169 21.5244 15.6892 21.5244H15.0793V22.9865H15.6892C17.1583 23.0146 18.3779 21.8336 18.4333 20.3434C18.4333 20.3153 18.4333 20.2591 18.4333 20.231V13.9045H16.9642V20.231Z" fill="#575756"/>
<path d="M34.3994 21.1028C33.9282 21.0747 33.5124 21.4402 33.4847 21.9464C33.4569 22.4525 33.8173 22.8461 34.3162 22.8742C34.3439 22.8742 34.3994 22.8742 34.4271 22.8742C34.8983 22.9024 35.3141 22.5368 35.3418 22.0307C35.3695 21.5527 35.0092 21.131 34.5102 21.1028C34.4548 21.1028 34.4271 21.1028 34.3994 21.1028Z" fill="#575756"/>
<path d="M40.2758 18.0376C40.3035 18.3469 40.0818 18.6 39.7769 18.6H39.7491H38.086C37.8088 18.5719 37.5316 18.5156 36.8109 16.8567C35.5359 14.1012 33.5401 13.0328 31.2672 13.8763V15.2259C33.152 14.4667 34.2885 15.2259 35.2032 17.0535C35.425 17.5878 35.7022 18.0939 36.0071 18.6H30.3801C29.9644 18.6281 29.5763 18.2907 29.5763 17.8408C29.5763 17.8127 29.5763 17.7846 29.5763 17.7565V16.3225C29.604 14.8041 28.4121 13.5389 26.9153 13.5107C26.8876 13.5107 26.8321 13.5107 26.8044 13.5107H26.6658C25.169 13.4826 23.9216 14.6917 23.8939 16.21C23.8939 16.2381 23.8939 16.2944 23.8939 16.3225V17.7565C23.9216 18.1782 23.589 18.5719 23.1732 18.6C23.1455 18.6 23.1178 18.6 23.0901 18.6H22.0645C21.7596 18.6 21.5378 18.3469 21.5378 18.0658V18.0376V11.177H20.0964V18.5719C20.0964 19.4154 20.734 20.0902 21.5655 20.1183H21.5933H23.0901C23.7276 20.1183 24.3374 19.8372 24.7532 19.3029C25.3353 19.809 26.0837 20.0621 26.8598 20.0621C27.5528 20.0621 28.2181 19.7528 28.6893 19.2186C29.0774 19.7809 29.7149 20.1183 30.3801 20.1183H40.1926C41.0242 20.1183 41.6895 19.4716 41.6895 18.6281C41.6895 18.6 41.6895 18.6 41.6895 18.5719V11.177H40.2481L40.2758 18.0376ZM28.1349 17.2222C28.1626 17.9533 27.5805 18.5438 26.8876 18.5719C26.3055 18.6 25.7511 18.3188 25.363 17.8689V16.3506C25.3353 15.6477 25.862 15.0572 26.5549 15.001C26.6104 15.001 26.6381 15.001 26.6935 15.001H26.8321C27.5251 14.9729 28.1072 15.5071 28.1626 16.21C28.1626 16.2663 28.1626 16.2944 28.1626 16.3506L28.1349 17.2222Z" fill="#575756"/>
<path d="M44.9048 11.177H43.4634V20.0902H44.9048V11.177Z" fill="#575756"/>
<path d="M49.3675 13.5391H49.2289C47.7321 13.511 46.4847 14.6919 46.457 16.2103C46.457 16.2665 46.457 16.2946 46.457 16.3508V17.2506C46.4293 18.7689 47.6212 20.0342 49.1458 20.0623H50.6703V20.2873C50.6703 21.3276 49.8942 21.89 47.3995 21.4401V22.8178C50.4763 23.5489 52.1394 22.4523 52.1394 20.6528V16.3227C52.1671 14.8044 51.0029 13.5672 49.5061 13.511C49.4507 13.5391 49.4229 13.5391 49.3675 13.5391ZM50.6703 18.6002H49.1458C48.4528 18.544 47.8984 17.9535 47.8984 17.2506V16.3508C47.8707 15.6479 48.3973 15.0574 49.0903 15.0012C49.1458 15.0012 49.1735 15.0012 49.2289 15.0012H49.3675C50.0605 14.9731 50.6426 15.5073 50.6703 16.2103C50.6703 16.2665 50.6703 16.2946 50.6703 16.3508V18.6002Z" fill="#575756"/>
<path d="M57.711 12.4989C58.1822 12.4989 58.5703 12.1053 58.5703 11.6273C58.5703 11.1493 58.1822 10.7275 57.711 10.7275C57.2398 10.7275 56.824 11.1212 56.824 11.5992C56.824 12.1053 57.212 12.4989 57.711 12.4989Z" fill="#575756"/>
<path d="M60.1779 12.4987C60.6491 12.4987 61.0372 12.105 61.0372 11.627C61.0372 11.149 60.6491 10.7554 60.1779 10.7554C59.7067 10.7554 59.3186 11.149 59.3186 11.627C59.3186 12.105 59.7067 12.4987 60.1779 12.4987Z" fill="#575756"/>
<path d="M65.0564 21.5244C64.5575 21.5244 64.1694 21.9181 64.1694 22.4242C64.1694 22.9303 64.5575 23.3239 65.0564 23.3239C65.5554 23.3239 65.9434 22.9303 65.9434 22.4242C65.9434 21.9181 65.5554 21.5244 65.0564 21.5244Z" fill="#575756"/>
<path d="M70.8221 21.2993C70.3231 21.3274 69.9628 21.7492 69.9905 22.2553C70.0182 22.7052 70.3786 23.0707 70.8221 23.0988C71.321 23.0707 71.6814 22.649 71.6536 22.1428C71.6259 21.693 71.2656 21.3274 70.8221 21.2993Z" fill="#575756"/>
<path d="M71.3764 18.544V14.0171H69.9073V18.0379C69.9351 18.3472 69.7133 18.6002 69.4084 18.6002H69.3807H66.7474C65.999 18.6002 65.7772 18.1222 65.7772 17.5599V17.3631C65.7772 17.2506 65.7772 17.11 65.7772 16.9975V14.0171H64.3081V17.588C64.3081 18.1504 64.0864 18.6002 63.3379 18.6002H62.3401C61.8966 18.6283 61.5362 18.2909 61.5085 17.8411C61.5085 17.8129 61.5085 17.7848 61.5085 17.7567V13.511H58.6257C57.1289 13.4829 55.9093 14.6919 55.8816 16.1821C55.8816 16.2384 55.8816 16.2665 55.8816 16.3227V17.2225C55.8538 18.7408 57.0735 20.0061 58.5703 20.0342C59.3187 20.0623 60.0394 19.7812 60.5383 19.2188C60.9818 19.7812 61.6471 20.0905 62.3401 20.0905H63.3379C63.9755 20.1186 64.613 19.8655 65.0565 19.3594C65.4446 19.8093 65.9712 20.0623 66.5533 20.0905H69.8242C70.6557 20.0905 71.321 19.4438 71.3487 18.6002C71.3764 18.5721 71.3764 18.5721 71.3764 18.544ZM60.1226 17.8692C59.7622 18.3191 59.2078 18.6002 58.6257 18.5721C57.9328 18.544 57.3784 17.9535 57.3784 17.2506C57.3784 17.2506 57.3784 17.2506 57.3784 17.2225V16.3508C57.3229 15.6479 57.8496 15.0574 58.5426 15.0012C58.598 15.0012 58.6257 15.0012 58.6812 15.0012H60.1226V17.8692Z" fill="#575756"/>
<path d="M68.3551 21.2991C67.8561 21.271 67.4403 21.6365 67.4126 22.1426C67.3849 22.6488 67.7453 23.0705 68.2442 23.0986C68.2719 23.0986 68.3274 23.0986 68.3551 23.0986C68.854 23.0705 69.2144 22.6488 69.1866 22.1426C69.1312 21.6928 68.7986 21.3272 68.3551 21.2991Z" fill="#575756"/>
<path d="M83.4341 12.7797C83.9053 12.7797 84.3211 12.386 84.2934 11.8799C84.2657 11.3738 83.9053 10.9801 83.4064 11.0083C82.9352 11.0083 82.5471 11.4019 82.5471 11.8799C82.5471 12.386 82.9352 12.7797 83.4341 12.7797Z" fill="#575756"/>
<path d="M88.6729 18.0376C88.7006 18.3469 88.4788 18.6 88.1739 18.6C88.1462 18.6 88.1462 18.6 88.1185 18.6H86.7048V17.4753C86.7048 14.8604 85.6238 13.6232 83.4894 13.6232C82.0758 13.6232 80.8839 14.6073 79.886 15.732V14.2699H78.4446V18.6281H76.4488V13.9325H74.9797V20.2589C75.0075 20.9337 74.5085 21.5242 73.8433 21.5523C73.8155 21.5523 73.7601 21.5523 73.7324 21.5523H73.0671V23.0144H73.7047C75.1738 23.0425 76.3934 21.8616 76.4488 20.3714C76.4488 20.3433 76.4488 20.287 76.4488 20.2589V20.1183H88.6452C89.4767 20.1183 90.142 19.4435 90.142 18.6V18.5719V11.177H88.7006L88.6729 18.0376ZM85.3189 18.6H79.886V17.1379C81.0225 15.7883 82.1589 15.0853 83.2954 15.0853C84.4319 15.0853 85.2912 15.7883 85.2912 17.4753L85.3189 18.6Z" fill="#575756"/>
<path d="M93.302 11.177H91.8606V20.0902H93.302V11.177Z" fill="#575756"/>
<path d="M97.7647 13.5391H97.6261C96.1293 13.511 94.882 14.6919 94.8542 16.2103C94.8542 16.2665 94.8542 16.2946 94.8542 16.3508V17.2506C94.8265 18.7689 96.0184 20.0342 97.543 20.0623H99.0675V20.2873C99.0675 21.3276 98.2914 21.89 95.7967 21.4401V22.8178C98.8735 23.5489 100.509 22.4523 100.509 20.6528V16.3227C100.537 14.8044 99.3724 13.5672 97.8756 13.511C97.8479 13.5391 97.7924 13.5391 97.7647 13.5391ZM99.0675 18.6002H97.543C96.85 18.544 96.2956 17.9535 96.2956 17.2506V16.3508C96.2679 15.6479 96.7946 15.0574 97.4875 15.0012C97.543 15.0012 97.5707 15.0012 97.6261 15.0012H97.7647C98.4577 14.9731 99.0398 15.5073 99.0675 16.2103C99.0675 16.2665 99.0675 16.2946 99.0675 16.3508V18.6002Z" fill="#575756"/>
<path d="M108.547 12.6674C109.046 12.6393 109.407 12.2176 109.379 11.7114C109.351 11.2616 108.991 10.896 108.547 10.8679C108.048 10.896 107.688 11.3178 107.716 11.8239C107.744 12.3019 108.104 12.6393 108.547 12.6674Z" fill="#575756"/>
<path d="M106.08 12.6674C106.579 12.6674 106.967 12.2738 106.967 11.7677C106.967 11.2616 106.579 10.8679 106.08 10.8679C105.609 10.8679 105.221 11.2616 105.193 11.7396C105.193 12.2738 105.581 12.6674 106.08 12.6674Z" fill="#575756"/>
<path d="M107.161 13.511H106.967C105.471 13.511 104.279 14.72 104.251 16.2384V17.335C104.251 18.8252 105.443 20.0623 106.912 20.0623C106.94 20.0623 106.94 20.0623 106.967 20.0623H107.272C108.714 20.0623 109.85 18.8814 109.85 17.4193V16.2384C109.85 14.7482 108.658 13.5391 107.161 13.511ZM108.409 17.5037C108.409 18.0941 107.938 18.6002 107.355 18.6002H106.995C106.302 18.6002 105.748 18.0379 105.748 17.335V16.2665C105.72 15.5917 106.247 15.0293 106.912 15.0012C106.94 15.0012 106.967 15.0012 106.995 15.0012H107.189C107.854 14.9731 108.409 15.5073 108.437 16.1821C108.437 16.2103 108.437 16.2384 108.437 16.2665L108.409 17.5037Z" fill="#575756"/>
<path d="M125.262 12.7516C125.761 12.7516 126.149 12.358 126.149 11.88C126.149 11.402 125.761 10.9802 125.29 10.9802C124.791 10.9802 124.403 11.3739 124.403 11.8519C124.403 12.3299 124.791 12.7235 125.262 12.7516Z" fill="#575756"/>
<path d="M128.256 18.0377C128.283 18.347 128.062 18.6 127.757 18.6C127.729 18.6 127.729 18.6 127.701 18.6H125.983V13.9044H124.514V20.2309C124.541 20.9057 124.042 21.4961 123.377 21.5242C123.349 21.5242 123.294 21.5242 123.266 21.5242H122.684V22.9864H123.322C124.791 23.0145 126.01 21.8335 126.038 20.3433C126.038 20.3152 126.038 20.259 126.038 20.2309V20.0903H128.228C129.059 20.0903 129.725 19.4436 129.725 18.6C129.725 18.5719 129.725 18.5719 129.725 18.5438V11.1489H128.283L128.256 18.0377Z" fill="#575756"/>
<path d="M132.885 11.177H131.443V20.0902H132.885V11.177Z" fill="#575756"/>
<path d="M138.733 12.4989C139.204 12.4989 139.592 12.1053 139.592 11.6273C139.592 11.1493 139.204 10.7275 138.733 10.7275C138.262 10.7275 137.846 11.1212 137.846 11.5992C137.846 12.1053 138.234 12.4989 138.733 12.4989Z" fill="#575756"/>
<path d="M141.2 12.4987C141.672 12.4987 142.06 12.105 142.06 11.627C142.06 11.149 141.672 10.7554 141.2 10.7554C140.729 10.7554 140.341 11.149 140.341 11.627C140.341 12.105 140.729 12.4987 141.2 12.4987Z" fill="#575756"/>
<path d="M147.077 12.0487H145.746C145.469 11.9081 145.303 11.627 145.303 11.3177C145.275 11.0927 145.414 10.8678 145.635 10.8397C145.663 10.8397 145.691 10.8397 145.718 10.8397C145.996 10.8397 146.245 11.0927 146.245 11.3739H146.994C146.938 10.4742 146.439 10.0243 145.718 10.0243C145.109 9.96804 144.582 10.4179 144.527 11.0365C144.527 11.0927 144.527 11.149 144.527 11.2333C144.527 11.5426 144.637 11.8238 144.831 12.0487H144.388V12.8923H147.104L147.077 12.0487Z" fill="#575756"/>
<path d="M149.322 21.2712C148.851 21.2712 148.435 21.6649 148.435 22.171C148.435 22.649 148.823 23.0708 149.322 23.0708C149.793 23.0708 150.209 22.6771 150.209 22.171C150.181 21.6649 149.793 21.2994 149.322 21.2712Z" fill="#575756"/>
<path d="M151.789 21.2712C151.318 21.2712 150.902 21.6649 150.902 22.171C150.902 22.649 151.29 23.0708 151.789 23.0708C152.26 23.0708 152.676 22.6771 152.676 22.171C152.648 21.6649 152.26 21.2712 151.789 21.2712Z" fill="#575756"/>
<path d="M156.556 13.7638V14.523C155.531 14.7761 154.81 15.7039 154.81 16.7724V17.4472C154.81 17.8971 154.976 18.3188 155.254 18.6281H152.482C151.761 18.6281 151.512 18.1501 151.512 17.5878V17.3629C151.512 17.2504 151.512 17.1098 151.512 16.9973V14.045H150.043V17.6159C150.043 18.1783 149.821 18.6281 149.072 18.6281H147.52C146.772 18.6281 146.55 18.1501 146.55 17.5878V14.045H145.109V17.5878C145.109 18.1783 144.915 18.6281 144.138 18.6281H143.418C142.974 18.6563 142.614 18.3188 142.586 17.869C142.586 17.8408 142.586 17.8127 142.586 17.7846V13.5389H139.703C138.207 13.5108 136.987 14.7198 136.959 16.21C136.959 16.2663 136.959 16.2944 136.959 16.3506V17.2504C136.931 18.7687 138.151 20.034 139.648 20.0621C140.396 20.0902 141.117 19.8091 141.616 19.2467C142.059 19.8091 142.725 20.1184 143.418 20.1184H144.166C144.804 20.1465 145.441 19.8934 145.885 19.3873C146.273 19.8372 146.799 20.0902 147.382 20.1184H149.1C149.738 20.1465 150.375 19.8934 150.819 19.3873C151.207 19.8372 151.733 20.0902 152.315 20.1184H160.409C161.906 20.1184 163.126 18.8812 163.126 17.3629V16.4912C163.07 14.3543 160.493 12.7797 156.556 13.7638ZM141.145 17.869C140.784 18.3188 140.23 18.6 139.648 18.5719C138.955 18.5438 138.401 17.9533 138.401 17.2504C138.401 17.2504 138.401 17.2504 138.401 17.2223V16.3506C138.345 15.6477 138.872 15.0572 139.565 15.001C139.62 15.001 139.648 15.001 139.703 15.001H141.145V17.869ZM158.497 18.6H157.222C156.584 18.5719 156.058 18.0377 156.03 17.3629V16.8005C156.03 16.0413 156.473 15.5915 157.277 15.5915C157.887 15.5352 158.441 15.9851 158.497 16.6037C158.497 16.6599 158.497 16.7443 158.497 16.8005V18.6ZM160.354 18.6H159.744V16.8286C159.8 15.9008 159.162 15.0572 158.275 14.8604C160.188 14.6636 161.629 15.4228 161.657 16.435V17.2785C161.657 18.0096 161.075 18.6 160.354 18.6Z" fill="#575756"/>
<path d="M121.908 17.644C121.908 18.9937 120.827 20.0903 119.497 20.0903H112.927C112.096 20.0903 111.43 19.4436 111.403 18.6C111.403 18.5719 111.403 18.5719 111.403 18.5438V11.1489H112.844V18.0377C112.816 18.347 113.038 18.6 113.343 18.6C113.371 18.6 113.371 18.6 113.398 18.6H119.386C119.968 18.6 120.439 18.0939 120.439 17.5035C120.439 17.4753 120.439 17.4753 120.439 17.4472C120.439 16.6318 119.857 16.2382 119.053 16.2382H115.256L114.978 15.1416L117.196 11.1489L118.554 11.6832L116.836 14.748H119.053C120.605 14.748 121.88 16.0132 121.88 17.5878C121.908 17.6159 121.908 17.6159 121.908 17.644Z" fill="#575756"/>
<path d="M10.2837 33.0807V34.2616H4.96167V33.3337L8.39881 28.1601H5.1557V27.0073H10.1451V27.9633L6.73568 33.1088H10.2837V33.0807Z" fill="#575756"/>
<path d="M11.8361 29.9316L11.6144 29.0599C13.3329 28.3289 15.6336 28.2727 15.6336 30.5783V34.2336H14.3585V33.5587C13.9428 34.0367 13.3329 34.3179 12.6954 34.3179C11.947 34.346 11.3095 33.7556 11.2817 32.9964C11.2817 32.9402 11.2817 32.8839 11.2817 32.8277C11.2817 31.6186 12.4459 30.8032 14.3585 30.8595V30.5783C14.3585 29.313 13.028 29.4536 11.8361 29.9316ZM12.4459 32.6871C12.4459 33.1089 12.8063 33.3338 13.2221 33.3338C13.6378 33.3338 14.0536 33.137 14.3585 32.8277V31.6186C13.0557 31.4781 12.4459 32.181 12.4459 32.6871Z" fill="#575756"/>
<path d="M22.7575 29.9316L22.5358 29.0599C24.2266 28.3289 26.555 28.2727 26.555 30.5783V34.2336H25.2799V33.5587C24.8641 34.0367 24.2543 34.3179 23.6168 34.3179C22.8684 34.346 22.2308 33.7556 22.2031 32.9964C22.2031 32.9402 22.2031 32.8839 22.2031 32.8277C22.2031 31.6186 23.3673 30.8032 25.2799 30.8595V30.5783C25.3076 29.313 23.9771 29.4536 22.7575 29.9316ZM23.395 32.6871C23.395 33.1089 23.7554 33.3338 24.1712 33.3338C24.587 33.3338 25.0027 33.137 25.3076 32.8277V31.6186C24.0049 31.4781 23.395 32.181 23.395 32.6871Z" fill="#575756"/>
<path d="M29.41 32.8559C29.3823 33.137 29.5764 33.362 29.8258 33.3901C29.8536 33.3901 29.909 33.3901 29.9367 33.3901C30.103 33.3901 30.2416 33.362 30.4079 33.3339V34.2617C30.0753 34.318 29.7427 34.3461 29.41 34.3461C28.4399 34.3461 28.135 33.84 28.135 32.9683V29.9879H27.4697L27.636 29.0319H28.135V27.7385L29.41 27.4292V29.0319H30.4911L30.3248 29.9879H29.4378V32.8559H29.41Z" fill="#575756"/>
<path d="M32.3482 36.0047H31.572C31.7661 35.2455 31.9046 34.4863 31.9878 33.6991L32.0155 33.3054H32.958L32.9302 33.6709C32.7917 34.4863 32.5976 35.2455 32.3482 36.0047Z" fill="#575756"/>
<path d="M38.0027 28.1321V34.2335H36.6167V28.1321H34.6487V26.9792H39.943V28.1321H38.0027Z" fill="#575756"/>
<path d="M41.551 29.9313L41.3292 29.0597C43.0201 28.3286 45.3485 28.2724 45.3485 30.5499V34.2052H44.0734V33.5303C43.6576 34.0083 43.0478 34.2895 42.4102 34.2895C41.6618 34.3176 41.0243 33.7272 40.9966 32.968C40.9966 32.9118 40.9966 32.8555 40.9966 32.7993C40.9966 31.5903 42.1608 30.7748 44.0734 30.8311V30.5499C44.1011 29.3127 42.7706 29.4533 41.551 29.9313ZM42.1885 32.6868C42.1885 33.1086 42.5211 33.3335 42.9646 33.3335C43.3804 33.3335 43.7962 33.1367 44.1011 32.8274V31.6184C42.7706 31.4778 42.1885 32.1807 42.1885 32.6868Z" fill="#575756"/>
<path d="M47.9262 28.8911L48.6746 30.0158L49.0904 30.8031L49.5339 29.9877L50.2546 28.863H51.5851L49.8665 31.478L51.6405 34.2053H50.116L49.3675 33.0806L48.924 32.2652L48.4805 33.0806L47.7599 34.2053H46.3462L48.1202 31.478L46.3462 28.863H47.9262V28.8911Z" fill="#575756"/>
<path d="M55.4379 29.9313L55.2162 29.0597C56.907 28.3286 59.2354 28.2724 59.2354 30.5499V34.2052H57.9603V33.5303C57.5446 34.0083 56.9347 34.2895 56.2972 34.2895C55.5488 34.3176 54.9113 33.7272 54.8835 32.968C54.8835 32.9118 54.8835 32.8555 54.8835 32.7993C54.8835 31.5903 56.0477 30.7748 57.9603 30.8311V30.5499C57.9881 29.3127 56.6576 29.4533 55.4379 29.9313ZM56.0755 32.6868C56.0755 33.1086 56.4081 33.3335 56.8516 33.3335C57.2674 33.3335 57.6832 33.1367 57.9881 32.8274V31.6184C56.6853 31.4778 56.0755 32.1807 56.0755 32.6868Z" fill="#575756"/>
<path d="M60.5938 34.2336V28.8913H61.8688V29.3693C62.3678 28.9756 62.9776 28.7788 63.5874 28.7788C64.6407 28.7788 65.1674 29.3974 65.1674 30.5221V34.2055H63.8923V30.9439C63.8923 30.3534 63.6428 30.0441 63.033 30.0441C62.5895 30.0722 62.2014 30.2409 61.8688 30.5221V34.2055L60.5938 34.2336Z" fill="#575756"/>
<path d="M68.4104 34.3177C67.0245 34.3177 66.387 33.1368 66.387 31.5341C66.387 29.9314 67.1077 28.7505 68.4936 28.7505C69.0203 28.7505 69.5192 28.9754 69.8518 29.3409V26.9229H71.0992V34.2334H69.8518V33.671C69.4638 34.0647 68.9371 34.3177 68.4104 34.3177ZM68.8539 29.7908C68.1055 29.7908 67.6898 30.4094 67.6898 31.5341C67.6898 32.6588 68.1333 33.2774 68.8539 33.2774C69.2143 33.2774 69.5469 33.1368 69.8241 32.9119V30.1564C69.5746 29.9314 69.2143 29.7908 68.8539 29.7908Z" fill="#575756"/>
<path d="M77.9736 34.3462C75.6729 34.3462 74.7305 32.8278 74.7305 30.6066C74.7305 28.3853 75.6729 26.8669 77.9736 26.8669C78.8052 26.8669 79.6367 27.0638 80.3851 27.4293V28.4977C79.6644 28.2447 78.8883 28.076 78.1122 28.0198C76.7817 28.0198 76.1164 28.8914 76.1164 30.6066C76.1164 32.3217 76.8094 33.1652 78.1122 33.1652C78.8883 33.1371 79.6644 32.9684 80.3851 32.7154V33.7838C79.6367 34.1775 78.8052 34.3462 77.9736 34.3462Z" fill="#575756"/>
<path d="M86.2892 28.8911V34.2615H85.0141V33.7273C84.5429 34.121 83.9331 34.3459 83.2955 34.3459C82.2422 34.3459 81.7156 33.7273 81.7156 32.6026V28.8911H82.9906V32.209C82.9906 32.7994 83.2401 33.1087 83.8499 33.1087C84.2934 33.0806 84.6815 32.9119 85.0141 32.6307V28.8911H86.2892Z" fill="#575756"/>
<path d="M87.5088 33.9241V32.9681C88.0909 33.2493 88.7007 33.3899 89.3382 33.418C90.1144 33.418 90.3361 33.0244 90.3361 32.7713C90.3361 32.3496 89.8372 32.1809 89.2551 31.984C88.5067 31.731 87.6197 31.3936 87.6197 30.3251C87.6197 29.2566 88.4235 28.5537 89.9203 28.5537C90.5301 28.5537 91.1677 28.6943 91.7221 28.9755V29.9315C91.2786 29.6503 90.7796 29.5097 90.253 29.5097C89.4214 29.5097 89.0888 29.9034 89.0888 30.2126C89.0888 30.6625 89.6431 30.8312 90.2807 31.0562C91.0014 31.3092 91.8329 31.6747 91.8329 32.6307C91.8329 33.7554 90.8905 34.374 89.6154 34.374C88.867 34.4021 88.1463 34.2334 87.5088 33.9241Z" fill="#575756"/>
<path d="M94.4108 32.8559C94.3831 33.137 94.5771 33.362 94.8266 33.3901C94.8543 33.3901 94.9097 33.3901 94.9374 33.3901C95.1038 33.3901 95.2424 33.362 95.4087 33.3339V34.2617C95.076 34.318 94.7434 34.3461 94.4108 34.3461C93.4406 34.3461 93.1357 33.84 93.1357 32.9683V29.9879H92.4705L92.6368 29.0319H93.1357V27.7385L94.4108 27.4292V29.0319H95.4918L95.3255 29.9879H94.4108V32.8559Z" fill="#575756"/>
<path d="M96.3235 31.5341C96.3235 29.9595 97.0996 28.7505 98.7905 28.7505C100.481 28.7505 101.257 29.9595 101.257 31.5341C101.257 33.1087 100.481 34.3177 98.7905 34.3177C97.0996 34.3177 96.3235 33.1087 96.3235 31.5341ZM97.4877 31.5341C97.4877 32.5745 97.9035 33.3899 98.7905 33.3899C99.6775 33.3899 100.066 32.5745 100.066 31.5341C100.066 30.4938 99.6775 29.6784 98.7905 29.6784C97.9035 29.6784 97.4877 30.4938 97.4877 31.5341Z" fill="#575756"/>
<path d="M110.266 30.5221V34.2055H108.991V30.9439C108.991 30.3534 108.742 30.0441 108.132 30.0441C107.716 30.0722 107.3 30.269 106.968 30.5502C106.995 30.6908 106.995 30.8314 106.995 30.972V34.2336H105.748V30.9439C105.748 30.3534 105.498 30.0441 104.889 30.0441C104.473 30.0722 104.057 30.2409 103.752 30.5221V34.2055H102.477V28.8913H103.752V29.5942C104.168 29.0881 104.778 28.8069 105.415 28.7788C106.136 28.7788 106.607 29.06 106.829 29.6505C107.439 29.06 108.021 28.7788 108.686 28.7788C109.739 28.7788 110.266 29.3974 110.266 30.5221Z" fill="#575756"/>
<path d="M111.458 33.9241V32.9681C112.04 33.2493 112.65 33.3899 113.287 33.418C114.064 33.418 114.285 33.0244 114.285 32.7713C114.285 32.3496 113.786 32.1809 113.204 31.984C112.456 31.731 111.569 31.3936 111.569 30.3251C111.569 29.2566 112.373 28.5537 113.842 28.5537C114.452 28.5537 115.089 28.6943 115.616 28.9755V29.9315C115.172 29.6503 114.673 29.5097 114.174 29.5097C113.343 29.5097 113.01 29.9034 113.01 30.2126C113.01 30.6625 113.565 30.8312 114.202 31.0562C114.923 31.3092 115.754 31.6747 115.754 32.6307C115.754 33.7554 114.812 34.374 113.537 34.374C112.844 34.4021 112.123 34.2334 111.458 33.9241Z" fill="#575756"/>
<path d="M120.827 32.4901L120.273 34.2334H118.914L121.575 26.9229H122.712L125.29 34.2334H123.876L123.322 32.4901H120.827ZM121.104 31.4497H123.128L122.13 28.385L121.104 31.4497Z" fill="#575756"/>
<path d="M130.917 28.8911V34.2615H129.642V33.7273C129.17 34.121 128.561 34.3459 127.923 34.3459C126.87 34.3459 126.343 33.7273 126.343 32.6026V28.8911H127.618V32.209C127.618 32.7994 127.868 33.1087 128.477 33.1087C128.921 33.0806 129.309 32.9119 129.642 32.6307V28.8911H130.917Z" fill="#575756"/>
<path d="M133.744 32.8559C133.716 33.1089 133.91 33.362 134.16 33.3901C134.187 33.3901 134.243 33.3901 134.27 33.3901C134.437 33.3901 134.575 33.362 134.742 33.3339V34.2617C134.409 34.318 134.076 34.3461 133.744 34.3461C132.774 34.3461 132.469 33.84 132.469 32.9683V29.9879H131.803L131.97 29.0319H132.496V27.7385L133.772 27.4292V29.0319H134.825L134.659 29.9879H133.772V32.8559H133.744Z" fill="#575756"/>
<path d="M140.341 30.522V34.2054H139.066V30.9438C139.066 30.3533 138.789 30.044 138.29 30.044C137.846 30.0722 137.403 30.2409 137.042 30.522V34.2054H135.767V26.9792H137.042V29.3411C137.486 28.9756 138.068 28.7506 138.622 28.7506C139.62 28.7225 140.341 29.3411 140.341 30.522Z" fill="#575756"/>
<path d="M141.561 31.5341C141.561 29.9595 142.337 28.7505 144.028 28.7505C145.718 28.7505 146.495 29.9595 146.495 31.5341C146.495 33.1087 145.718 34.3177 144.028 34.3177C142.337 34.3177 141.561 33.1087 141.561 31.5341ZM142.725 31.5341C142.725 32.5745 143.141 33.3899 144.028 33.3899C144.915 33.3899 145.303 32.5745 145.303 31.5341C145.303 30.4938 144.915 29.6784 144.028 29.6784C143.141 29.6784 142.725 30.4938 142.725 31.5341Z" fill="#575756"/>
<path d="M147.714 34.2331V28.8908H148.989V29.903C149.35 29.2563 150.043 28.8627 150.791 28.8908V29.903C150.07 29.8187 149.155 30.381 149.017 30.8871V34.2331H147.714Z" fill="#575756"/>
<path d="M151.65 27.7381C151.65 27.3725 151.955 27.0632 152.315 27.0632C152.676 27.0632 152.981 27.3725 152.981 27.7381C152.981 28.1036 152.676 28.4129 152.315 28.4129C151.955 28.4129 151.65 28.1036 151.65 27.7381ZM152.981 34.2332H151.706V29.0315H152.981V34.2332Z" fill="#575756"/>
<path d="M156.169 32.8559C156.141 33.1089 156.335 33.362 156.584 33.3901C156.612 33.3901 156.668 33.3901 156.695 33.3901C156.862 33.3901 157 33.362 157.166 33.3339V34.2617C156.834 34.318 156.501 34.3461 156.169 34.3461C155.198 34.3461 154.894 33.84 154.894 32.9683V29.9879H154.228L154.395 29.0319H154.894V27.7385L156.169 27.4292V29.0319H157.25L157.083 29.9879H156.196L156.169 32.8559Z" fill="#575756"/>
<path d="M163.154 28.8911L160.604 36.1454H159.412L159.938 34.599L157.832 28.8911H159.245L160.493 33.0244L161.768 28.863H163.154V28.8911Z" fill="#575756"/>
<path d="M21.3714 34.2335H19.9023L18.2115 31.7592V34.2335H16.9641V26.9792H18.2115V31.1125L19.7914 28.7788H21.2328L19.3202 31.3656L21.3714 34.2335Z" fill="#575756"/>
<path d="M172.744 13.6796L190.956 1.11108L191.177 1.44849L172.994 14.0451L172.744 13.6796Z" fill="url(#paint0_linear_17_17103)"/>
<path d="M172.772 11.402L187.352 1.33594L187.602 1.67335L173.021 11.7675L172.772 11.402Z" fill="url(#paint1_linear_17_17103)"/>
<path d="M172.772 9.09649L182.917 2.06714L183.167 2.40454L173.021 9.46201L172.772 9.09649Z" fill="url(#paint2_linear_17_17103)"/>
<path d="M172.8 6.81903L177.013 3.8667L177.235 4.23222L173.022 7.15644L172.8 6.81903Z" fill="url(#paint3_linear_17_17103)"/>
<path d="M200.325 17.3626L197.359 19.3871L182.197 29.903L182.501 30.3528L180.45 31.815L180.617 32.068L176.209 35.1609L176.459 35.4983L181.31 32.068L182.889 30.9433L198.301 20.2868L197.996 19.8088L200.713 17.9249L200.546 17.7L210.442 10.8675L210.22 10.502L200.325 17.3626Z" fill="url(#paint4_linear_17_17103)"/>
<path d="M201.156 19.05L197.996 21.2431L183.305 31.3935L183.61 31.8434L181.42 33.418L181.559 33.6429L177.262 36.7077L177.512 37.0451L181.808 33.9803V34.0084L184.026 32.4338L198.745 22.2553L198.44 21.7774L201.544 19.6404L201.378 19.4155L210.442 13.1453L210.193 12.7798L201.156 19.05Z" fill="url(#paint5_linear_17_17103)"/>
<path d="M201.96 20.7652L199.354 22.5647L184.358 32.94L184.663 33.418L182.64 34.852L182.806 35.0769L178.454 38.1698L178.704 38.5073L183.028 35.4143L185.051 33.9803V34.0085L200.047 23.6331L199.742 23.1552L202.348 21.3556L202.209 21.1307L210.414 15.4229L210.192 15.0854L201.96 20.7652Z" fill="url(#paint6_linear_17_17103)"/>
<path d="M203.18 22.199L200.602 23.9704V23.9985L185.44 34.4301L185.772 34.9081L183.167 36.7357L183.333 36.9606L179.757 39.5193L179.979 39.8567L184.081 36.9606L186.853 34.9924L201.433 24.9545L201.129 24.4765L203.596 22.7613L203.429 22.5364L210.414 17.7283L210.165 17.3628L203.18 22.199Z" fill="url(#paint7_linear_17_17103)"/>
<path d="M204.704 23.4084L201.877 25.3766L188.738 34.4585L189.043 34.9365L185.939 37.1296L186.077 37.3546L181.226 40.813L181.476 41.1504L186.77 37.4108L189.431 35.5269L202.653 26.3607L202.348 25.8827L205.092 23.9988L204.954 23.7739L210.387 20.0061L210.165 19.6406L204.704 23.4084Z" fill="url(#paint8_linear_17_17103)"/>
<path d="M208.086 23.5204L208.003 23.408L204.677 25.7136L191.954 34.5144L192.258 34.9924L188.849 37.4104L188.988 37.6354L182.973 41.9092L183.222 42.2748L189.653 37.6916L192.979 35.3298L205.397 26.754L205.065 26.3041L208.391 23.9984L208.197 23.6892L208.335 23.886L210.387 22.3958L210.137 22.0583L208.086 23.5204Z" fill="url(#paint9_linear_17_17103)"/>
<path d="M208.141 25.6013L206.257 26.8947L198.773 32.0683L199.105 32.5463L195.917 34.7957L196.084 35.0207L184.664 43.1185L184.913 43.4559L196.777 35.0488L199.549 33.0806L206.977 27.9351L206.672 27.4852L208.53 26.1637L208.391 25.9388L210.331 24.5891L210.11 24.2517L208.141 25.6013Z" fill="url(#paint10_linear_17_17103)"/>
<path d="M208.529 27.7101L208.474 27.6258L206.7 28.863L200.768 32.9681L201.073 33.4461L198.329 35.3862L198.468 35.6393L186.438 44.1588L186.687 44.4962L199.327 35.5549V35.5268L201.766 33.8116L207.421 29.9033L207.116 29.4534L208.862 28.2163L208.668 27.9351L210.026 27.0072L209.86 26.7542L208.529 27.7101Z" fill="url(#paint11_linear_17_17103)"/>
<path d="M174.435 16.3508L176.126 15.1699L182.529 10.7274L182.197 10.2775L185.024 8.33738L184.858 8.11244L194.337 1.56108L194.088 1.19556L184.636 7.74691L181.808 9.68702L175.045 14.3826L175.35 14.8325L173.742 15.9853L173.909 16.2102L172.744 17.0538L172.966 17.3912L174.435 16.3508Z" fill="url(#paint12_linear_17_17103)"/>
<path d="M175.489 17.8973L177.152 16.7164L185.079 11.2335L184.747 10.7836L186.937 9.26529L186.798 9.06846L197.109 1.87041L196.86 1.50488L186.549 8.70294V8.67482L184.359 10.1932L175.96 16.0135L176.265 16.4915L174.823 17.5037L174.99 17.7567L172.717 19.3594L172.966 19.6968L175.489 17.8973Z" fill="url(#paint13_linear_17_17103)"/>
<path d="M175.877 19.9218L178.094 18.3472L186.687 12.3863L186.382 11.9084L188.683 10.3057L188.544 10.1088L199.66 2.34844L199.41 1.98291L188.295 9.74332L185.883 11.4022L176.875 17.6443L177.18 18.1223L175.239 19.5001L175.406 19.7531L172.717 21.637L172.939 22.0025L175.877 19.9218Z" fill="url(#paint14_linear_17_17103)"/>
<path d="M176.764 21.5805L179.175 19.8653L188.323 13.5389L187.99 13.089L190.457 11.402L190.291 11.1489L202.182 2.99487L201.96 2.65747L189.875 10.8959L189.903 10.924L187.602 12.4986L177.789 19.303L178.094 19.781L175.849 21.3555L176.015 21.6086L172.717 23.9423L172.966 24.2798L176.764 21.5805Z" fill="url(#paint15_linear_17_17103)"/>
<path d="M177.845 23.0988L179.397 22.0023L189.93 14.6917L189.625 14.2419L192.342 12.3299L192.203 12.1049L204.178 3.83842L203.928 3.4729L191.954 11.7675L189.21 13.6514L178.704 20.9338L179.009 21.4118L176.986 22.8458L177.152 23.0707L172.911 26.0793L173.16 26.4167L177.845 23.0988Z" fill="url(#paint16_linear_17_17103)"/>
<path d="M178.898 24.6454L180.672 23.3802L191.566 15.8447L191.261 15.3948L194.282 13.286L194.116 13.0611L206.423 4.56962L206.173 4.2041L193.866 12.7237V12.6956L190.679 14.9168L179.591 22.5929L179.924 23.0709L178.011 24.3924L178.177 24.6454L173.299 28.1039L173.521 28.4413L178.898 24.6454Z" fill="url(#paint17_linear_17_17103)"/>
<path d="M179.203 26.726L181.753 24.9264L194.615 16.0695L194.282 15.5915L197.137 13.6233L196.971 13.3983L208.391 5.49732L208.169 5.15991L196.749 13.0609L193.811 15.0854L180.45 24.2797L180.755 24.7577L178.371 26.4448L178.538 26.6697L173.825 30.0157L174.047 30.3812L179.203 26.726Z" fill="url(#paint18_linear_17_17103)"/>
<path d="M179.508 28.7785L181.753 27.1759L195.723 17.5035L195.418 17.0536L198.274 15.0854L198.135 14.8323L210.22 6.48145L209.971 6.14404L197.885 14.4949L195.03 16.4631L180.755 26.3323L181.06 26.8103L178.649 28.5255L178.815 28.7504L174.491 31.8152L174.712 32.1808L179.508 28.7785Z" fill="url(#paint19_linear_17_17103)"/>
<path d="M179.951 30.7466L181.864 29.3689L196.777 19.0779L196.472 18.5999L199.188 16.7161L199.05 16.4911L210.47 8.59013L210.22 8.22461L198.8 16.1256L196.084 18.0095L181.143 28.3286L181.476 28.8065L179.231 30.4092L179.397 30.6342L175.267 33.5303L175.516 33.8677L179.951 30.7466Z" fill="url(#paint20_linear_17_17103)"/>
<path d="M188.184 45.171L208.807 30.6062L209.028 30.9436L188.406 45.5366L188.184 45.171Z" fill="url(#paint21_linear_17_17103)"/>
<path d="M189.819 46.7736L207.199 34.5144L207.421 34.8799L190.069 47.111L189.819 46.7736Z" fill="url(#paint22_linear_17_17103)"/>
<path d="M195.973 44.7494L203.595 39.3508L203.845 39.7164L196.222 45.0868L195.973 44.7494Z" fill="url(#paint23_linear_17_17103)"/>
<defs>
<linearGradient id="paint0_linear_17_17103" x1="198.694" y1="-7.42249" x2="161.584" y2="24.8989" gradientUnits="userSpaceOnUse">
<stop stop-color="#62B34F"/>
<stop offset="0.46" stop-color="#51BAB4"/>
<stop offset="1" stop-color="#0094D3"/>
</linearGradient>
<linearGradient id="paint1_linear_17_17103" x1="197.415" y1="-8.89962" x2="160.305" y2="23.4218" gradientUnits="userSpaceOnUse">
<stop stop-color="#62B34F"/>
<stop offset="0.46" stop-color="#51BAB4"/>
<stop offset="1" stop-color="#0094D3"/>
</linearGradient>
<linearGradient id="paint2_linear_17_17103" x1="196.059" y1="-10.4474" x2="158.952" y2="21.8741" gradientUnits="userSpaceOnUse">
<stop stop-color="#62B34F"/>
<stop offset="0.46" stop-color="#51BAB4"/>
<stop offset="1" stop-color="#0094D3"/>
</linearGradient>
<linearGradient id="paint3_linear_17_17103" x1="194.646" y1="-12.0714" x2="157.54" y2="20.2501" gradientUnits="userSpaceOnUse">
<stop stop-color="#62B34F"/>
<stop offset="0.46" stop-color="#51BAB4"/>
<stop offset="1" stop-color="#0094D3"/>
</linearGradient>
<linearGradient id="paint4_linear_17_17103" x1="211.227" y1="6.97204" x2="174.121" y2="39.2935" gradientUnits="userSpaceOnUse">
<stop stop-color="#62B34F"/>
<stop offset="0.46" stop-color="#51BAB4"/>
<stop offset="1" stop-color="#0094D3"/>
</linearGradient>
<linearGradient id="paint5_linear_17_17103" x1="212.392" y1="8.30493" x2="175.282" y2="40.6297" gradientUnits="userSpaceOnUse">
<stop stop-color="#62B34F"/>
<stop offset="0.46" stop-color="#51BAB4"/>
<stop offset="1" stop-color="#0094D3"/>
</linearGradient>
<linearGradient id="paint6_linear_17_17103" x1="213.565" y1="9.6528" x2="176.455" y2="41.9742" gradientUnits="userSpaceOnUse">
<stop stop-color="#62B34F"/>
<stop offset="0.46" stop-color="#51BAB4"/>
<stop offset="1" stop-color="#0094D3"/>
</linearGradient>
<linearGradient id="paint7_linear_17_17103" x1="214.734" y1="10.9994" x2="177.627" y2="43.3209" gradientUnits="userSpaceOnUse">
<stop stop-color="#62B34F"/>
<stop offset="0.46" stop-color="#51BAB4"/>
<stop offset="1" stop-color="#0094D3"/>
</linearGradient>
<linearGradient id="paint8_linear_17_17103" x1="215.932" y1="12.3729" x2="178.825" y2="44.6944" gradientUnits="userSpaceOnUse">
<stop stop-color="#62B34F"/>
<stop offset="0.46" stop-color="#51BAB4"/>
<stop offset="1" stop-color="#0094D3"/>
</linearGradient>
<linearGradient id="paint9_linear_17_17103" x1="217.171" y1="13.794" x2="180.064" y2="46.1154" gradientUnits="userSpaceOnUse">
<stop stop-color="#62B34F"/>
<stop offset="0.46" stop-color="#51BAB4"/>
<stop offset="1" stop-color="#0094D3"/>
</linearGradient>
<linearGradient id="paint10_linear_17_17103" x1="218.439" y1="15.2518" x2="181.332" y2="47.5732" gradientUnits="userSpaceOnUse">
<stop stop-color="#62B34F"/>
<stop offset="0.46" stop-color="#51BAB4"/>
<stop offset="1" stop-color="#0094D3"/>
</linearGradient>
<linearGradient id="paint11_linear_17_17103" x1="219.663" y1="16.6546" x2="182.556" y2="48.9794" gradientUnits="userSpaceOnUse">
<stop stop-color="#62B34F"/>
<stop offset="0.46" stop-color="#51BAB4"/>
<stop offset="1" stop-color="#0094D3"/>
</linearGradient>
<linearGradient id="paint12_linear_17_17103" x1="200.074" y1="-5.8327" x2="162.967" y2="26.4888" gradientUnits="userSpaceOnUse">
<stop stop-color="#62B34F"/>
<stop offset="0.46" stop-color="#51BAB4"/>
<stop offset="1" stop-color="#0094D3"/>
</linearGradient>
<linearGradient id="paint13_linear_17_17103" x1="201.359" y1="-4.35757" x2="164.252" y2="27.9639" gradientUnits="userSpaceOnUse">
<stop stop-color="#62B34F"/>
<stop offset="0.46" stop-color="#51BAB4"/>
<stop offset="1" stop-color="#0094D3"/>
</linearGradient>
<linearGradient id="paint14_linear_17_17103" x1="202.639" y1="-2.88843" x2="165.532" y2="29.4331" gradientUnits="userSpaceOnUse">
<stop stop-color="#62B34F"/>
<stop offset="0.46" stop-color="#51BAB4"/>
<stop offset="1" stop-color="#0094D3"/>
</linearGradient>
<linearGradient id="paint15_linear_17_17103" x1="203.957" y1="-1.37341" x2="166.85" y2="30.948" gradientUnits="userSpaceOnUse">
<stop stop-color="#62B34F"/>
<stop offset="0.46" stop-color="#51BAB4"/>
<stop offset="1" stop-color="#0094D3"/>
</linearGradient>
<linearGradient id="paint16_linear_17_17103" x1="205.186" y1="0.0342536" x2="168.079" y2="32.3557" gradientUnits="userSpaceOnUse">
<stop stop-color="#62B34F"/>
<stop offset="0.46" stop-color="#51BAB4"/>
<stop offset="1" stop-color="#0094D3"/>
</linearGradient>
<linearGradient id="paint17_linear_17_17103" x1="206.433" y1="1.46727" x2="169.326" y2="33.7887" gradientUnits="userSpaceOnUse">
<stop stop-color="#62B34F"/>
<stop offset="0.46" stop-color="#51BAB4"/>
<stop offset="1" stop-color="#0094D3"/>
</linearGradient>
<linearGradient id="paint18_linear_17_17103" x1="207.685" y1="2.90577" x2="170.578" y2="35.2272" gradientUnits="userSpaceOnUse">
<stop stop-color="#62B34F"/>
<stop offset="0.46" stop-color="#51BAB4"/>
<stop offset="1" stop-color="#0094D3"/>
</linearGradient>
<linearGradient id="paint19_linear_17_17103" x1="208.91" y1="4.30958" x2="171.803" y2="36.6311" gradientUnits="userSpaceOnUse">
<stop stop-color="#62B34F"/>
<stop offset="0.46" stop-color="#51BAB4"/>
<stop offset="1" stop-color="#0094D3"/>
</linearGradient>
<linearGradient id="paint20_linear_17_17103" x1="210.069" y1="5.63975" x2="172.959" y2="37.9612" gradientUnits="userSpaceOnUse">
<stop stop-color="#62B34F"/>
<stop offset="0.46" stop-color="#51BAB4"/>
<stop offset="1" stop-color="#0094D3"/>
</linearGradient>
<linearGradient id="paint21_linear_17_17103" x1="220.853" y1="18.0776" x2="183.835" y2="50.3969" gradientUnits="userSpaceOnUse">
<stop stop-color="#62B34F"/>
<stop offset="0.46" stop-color="#51BAB4"/>
<stop offset="1" stop-color="#0094D3"/>
</linearGradient>
<linearGradient id="paint22_linear_17_17103" x1="221.975" y1="19.9791" x2="184.856" y2="52.1795" gradientUnits="userSpaceOnUse">
<stop stop-color="#62B34F"/>
<stop offset="0.46" stop-color="#51BAB4"/>
<stop offset="1" stop-color="#0094D3"/>
</linearGradient>
<linearGradient id="paint23_linear_17_17103" x1="223.218" y1="21.4169" x2="186.099" y2="53.6173" gradientUnits="userSpaceOnUse">
<stop stop-color="#62B34F"/>
<stop offset="0.46" stop-color="#51BAB4"/>
<stop offset="1" stop-color="#0094D3"/>
</linearGradient>
</defs>
</svg>
